<svg width="34" height="37" viewBox="0 0 34 37" fill="none" xmlns="http://www.w3.org/2000/svg">
<path d="M1 13.0921C1 7.39181 1 4.54169 2.75736 2.77084C4.51472 1 7.34315 1 13 1H21C26.6569 1 29.4853 1 31.2426 2.77084C33 4.54169 33 7.39181 33 13.0921V26.8521C33 32.2598 33 34.9637 31.3114 35.7907C29.6228 36.6177 27.5129 34.9472 23.2931 31.6062L21.9426 30.5369C19.5698 28.6583 18.3835 27.719 17 27.719C15.6165 27.719 14.4302 28.6583 12.0574 30.5369L10.7069 31.6062C6.48709 34.9472 4.37717 36.6177 2.68859 35.7907C1 34.9637 1 32.2598 1 26.8521V13.0921Z" fill="white" stroke="black" stroke-width="2"/>
</svg>
