<svg width="32" height="35" viewBox="0 0 32 35" fill="none" xmlns="http://www.w3.org/2000/svg">
<path d="M0 12.0921C0 6.39181 0 3.54169 1.75736 1.77084C3.51472 0 6.34315 0 12 0H20C25.6569 0 28.4853 0 30.2426 1.77084C32 3.54169 32 6.39181 32 12.0921V25.8521C32 31.2598 32 33.9637 30.3114 34.7907C28.6228 35.6177 26.5129 33.9472 22.2931 30.6062L20.9426 29.5369C18.5698 27.6583 17.3835 26.719 16 26.719C14.6165 26.719 13.4302 27.6583 11.0574 29.5369L9.70693 30.6062C5.48709 33.9472 3.37717 35.6177 1.68859 34.7907C0 33.9637 0 31.2598 0 25.8521V12.0921Z" fill="#00FF00"/>
</svg>
