<svg width="16" height="16" viewBox="0 0 16 16" fill="none" xmlns="http://www.w3.org/2000/svg">
<path d="M13.4743 4.00091V12.7988H14.3199V4.00091H16V3.20301H15.1599V2.39987H11.7886V0.798828H10.9485V2.39987H5.05147V0.798828H4.2114V2.39987H0.845596V3.20301H0V4.00091H1.68566V12.7988H2.52573V4.00091H13.4743Z" fill="white"/>
<path d="M13.4729 12.7988H12.6328V15.1978H13.4729V12.7988Z" fill="white"/>
<path d="M12.6379 15.1973H3.375V16.0004H12.6379V15.1973Z" fill="white"/>
<path d="M11.7893 5.60156H10.9492V12.0005H11.7893V5.60156Z" fill="white"/>
<path d="M10.9455 12H10.1055V13.5958H10.9455V12Z" fill="white"/>
<path d="M8.4221 5.60156H7.58203V13.5963H8.4221V5.60156Z" fill="white"/>
<path d="M10.9478 0H5.05078V0.797895H10.9478V0Z" fill="white"/>
<path d="M5.89638 12H5.05078V13.5958H5.89638V12Z" fill="white"/>
<path d="M5.0471 5.60156H4.20703V12.0005H5.0471V5.60156Z" fill="white"/>
<path d="M3.36903 12.7988H2.52344V15.1978H3.36903V12.7988Z" fill="white"/>
</svg>
