<svg width="10" height="10" viewBox="0 0 10 10" fill="none" xmlns="http://www.w3.org/2000/svg">
<path d="M8.42142 2.50032V7.99897H8.94991V2.50032H10V2.00164H9.47496V1.49967H7.36788V0.499023H6.84283V1.49967H3.15717V0.499023H2.63212V1.49967H0.528497V2.00164H0V2.50032H1.05354V7.99897H1.57858V2.50032H8.42142Z" fill="white"/>
<path d="M8.41957 7.99902H7.89453V9.49836H8.41957V7.99902Z" fill="white"/>
<path d="M7.89867 9.49805H2.10938V10H7.89867V9.49805Z" fill="white"/>
<path d="M7.36879 3.50098H6.84375V7.5003H7.36879V3.50098Z" fill="white"/>
<path d="M6.84145 7.5H6.31641V8.49737H6.84145V7.5Z" fill="white"/>
<path d="M5.26332 3.50098H4.73828V8.49766H5.26332V3.50098Z" fill="white"/>
<path d="M6.84191 0H3.15625V0.498684H6.84191V0Z" fill="white"/>
<path d="M3.68475 7.5H3.15625V8.49737H3.68475V7.5Z" fill="white"/>
<path d="M3.15395 3.50098H2.62891V7.5003H3.15395V3.50098Z" fill="white"/>
<path d="M2.10662 7.99902H1.57812V9.49836H2.10662V7.99902Z" fill="white"/>
</svg>
