<svg xmlns="http://www.w3.org/2000/svg" width="196" height="53" viewBox="0 0 196 53" fill="none">
  <g clip-path="url(#clip0_2213_848)">
    <path d="M128.241 5.20605C125.301 5.20605 122.92 7.57999 122.92 10.5115C122.92 13.4431 125.301 15.8171 128.241 15.8171C131.181 15.8171 133.562 13.4431 133.562 10.5115C133.562 7.57999 131.181 5.20605 128.241 5.20605ZM128.241 13.6971C126.474 13.6971 125.046 12.2727 125.046 10.5115C125.046 8.7504 126.474 7.32608 128.241 7.32608C130.007 7.32608 131.435 8.7504 131.435 10.5115C131.435 12.2727 130.007 13.6971 128.241 13.6971Z" fill="white"/>
    <path d="M140.217 5.20605C137.277 5.20605 134.896 7.57999 134.896 10.5115C134.896 13.4431 137.277 15.8171 140.217 15.8171C143.157 15.8171 145.538 13.4431 145.538 10.5115C145.538 7.57999 143.157 5.20605 140.217 5.20605ZM140.217 13.6971C138.451 13.6971 137.023 12.2727 137.023 10.5115C137.023 8.7504 138.451 7.32608 140.217 7.32608C141.983 7.32608 143.412 8.7504 143.412 10.5115C143.412 12.2727 141.983 13.6971 140.217 13.6971Z" fill="white"/>
    <path d="M151.928 5.47133C149.281 5.47133 147.139 7.60789 147.139 10.2469V15.5524H149.27V10.2469C149.27 8.78383 150.461 7.59133 151.933 7.59133H152.997V5.46582H151.933L151.928 5.47133Z" fill="white"/>
    <path d="M168.963 9.71621C168.963 7.36985 167.059 5.4707 164.706 5.4707C163.432 5.4707 162.292 6.02835 161.511 6.91168C160.73 6.02835 159.59 5.4707 158.316 5.4707C155.963 5.4707 154.059 7.36985 154.059 9.71621V15.5573H156.19V9.71621C156.19 8.54579 157.143 7.59069 158.322 7.59069C159.501 7.59069 160.454 8.54027 160.454 9.71621V15.5573H162.585V9.71621C162.585 8.54579 163.537 7.59069 164.717 7.59069C165.896 7.59069 166.848 8.54027 166.848 9.71621V15.5573H168.98V9.71621H168.963Z" fill="white"/>
    <path d="M121.587 10.5115C121.587 7.57999 119.206 5.20605 116.266 5.20605C113.326 5.20605 111.089 7.44196 110.951 10.2465C110.951 10.3349 110.945 10.4232 110.945 10.5115C110.945 10.5999 110.945 10.6883 110.951 10.7766C111.089 13.5094 113.359 15.6846 116.133 15.6846C117.401 15.6846 118.558 15.2319 119.461 14.481V15.2871C119.439 15.6183 119.345 16.4796 118.68 17.1642C117.739 18.1413 116.277 18.1248 115.319 17.7991C114.317 17.4568 113.752 16.728 113.536 16.4133L111.554 17.2305C112.208 18.4616 113.332 19.4056 114.688 19.8252C114.821 19.8638 115.43 20.0515 116.261 20.0626C116.847 20.0681 118.747 20.0902 120.181 18.6603C121.482 17.3684 121.57 15.7122 121.581 15.2816V10.506L121.587 10.5115ZM116.261 13.6971C114.494 13.6971 113.066 12.2727 113.066 10.5115C113.066 8.7504 114.494 7.32608 116.261 7.32608C118.027 7.32608 119.455 8.7504 119.455 10.5115C119.455 12.2727 118.027 13.6971 116.261 13.6971Z" fill="white"/>
    <path d="M28.6132 15.5467H26.8027V0.391991L28.6132 0V15.5467ZM33.4468 4.54365L34.8642 5.565L31.3816 9.91542L35.4123 14.7406L34.0171 15.8172L29.261 10.0148L33.4523 4.54365H33.4468Z" fill="white"/>
    <path d="M37.0192 12.6646C37.0192 11.577 37.3846 10.7544 38.1099 10.1858C38.8353 9.61714 39.8983 9.33006 41.2825 9.33006H43.3698V8.64548C43.3698 6.98371 42.6334 6.15558 41.1662 6.15558C40.6956 6.15558 40.1973 6.22183 39.6824 6.35433C39.1619 6.48683 38.6913 6.64693 38.2539 6.84568L37.7224 5.57037C38.2594 5.27225 38.8408 5.03486 39.4609 4.87476C40.081 4.70913 40.6901 4.63184 41.2769 4.63184C43.8183 4.63184 45.0918 5.98443 45.0918 8.68964V15.552H43.7574L43.5415 14.3761C43.0044 14.8067 42.4286 15.1435 41.8195 15.3754C41.2105 15.6128 40.6292 15.7287 40.081 15.7287C39.1232 15.7287 38.3757 15.4582 37.8331 14.9171C37.2905 14.3761 37.0137 13.6253 37.0137 12.6702M40.4132 14.2712C40.6624 14.2712 40.9171 14.2381 41.1884 14.1718C41.4541 14.1056 41.7254 14.0228 41.9912 13.9179C42.2569 13.813 42.5116 13.686 42.7442 13.5369C42.9823 13.3879 43.1871 13.2278 43.3698 13.0566V10.5446H41.4873C40.535 10.5446 39.8374 10.7103 39.4 11.036C38.9626 11.3617 38.7467 11.8807 38.7467 12.5874C38.7467 13.7136 39.3003 14.2712 40.4132 14.2712Z" fill="white"/>
    <path d="M50.1289 15.5467H48.3184V0.391991L50.1289 0V15.5467ZM54.9624 4.54365L56.3799 5.565L52.9028 9.91542L56.9336 14.7406L55.5383 15.8172L50.7822 10.0148L54.968 4.54365H54.9624Z" fill="white"/>
    <path d="M58.5352 12.6646C58.5352 11.577 58.9006 10.7544 59.6259 10.1858C60.3567 9.61714 61.4143 9.33006 62.804 9.33006H64.8858V8.64548C64.8858 6.98371 64.1494 6.15558 62.6822 6.15558C62.2115 6.15558 61.7132 6.22183 61.1983 6.35433C60.6779 6.48683 60.2072 6.64693 59.7754 6.84568L59.2439 5.57037C59.7809 5.27225 60.3623 5.03486 60.9824 4.87476C61.6025 4.70913 62.2115 4.63184 62.804 4.63184C65.3453 4.63184 66.6188 5.98443 66.6188 8.68964V15.552H65.2789L65.063 14.3761C64.5259 14.8067 63.9556 15.1435 63.341 15.3754C62.732 15.6128 62.1506 15.7287 61.6025 15.7287C60.6446 15.7287 59.8972 15.4582 59.3491 14.9171C58.8065 14.3761 58.5352 13.6253 58.5352 12.6702M61.9292 14.2712C62.1783 14.2712 62.433 14.2381 62.7043 14.1718C62.9701 14.1056 63.2414 14.0228 63.5071 13.9179C63.7729 13.813 64.0276 13.686 64.2601 13.5369C64.4927 13.3879 64.7031 13.2278 64.8858 13.0566V10.5446H63.0088C62.0565 10.5446 61.3589 10.7103 60.9215 11.036C60.4841 11.3617 60.2681 11.8807 60.2681 12.5874C60.2681 13.7136 60.8218 14.2712 61.9347 14.2712" fill="white"/>
    <path d="M73.8925 4.64258C75.3874 4.64258 76.5612 5.12842 77.4138 6.09454C78.2665 7.06069 78.6928 8.44642 78.6928 10.2517C78.6928 12.057 78.272 13.3931 77.4249 14.3482C76.5778 15.3033 75.404 15.7781 73.898 15.7781C72.392 15.7781 71.2293 15.3033 70.3766 14.3482C69.524 13.3931 69.0977 12.0294 69.0977 10.2517C69.0977 8.47402 69.524 7.06069 70.3877 6.09454C71.2459 5.12842 72.4142 4.64258 73.898 4.64258M73.8925 6.09454C72.9512 6.09454 72.2259 6.44793 71.7221 7.1546C71.2182 7.86126 70.9635 8.8936 70.9635 10.2517C70.9635 11.6099 71.2182 12.6146 71.7221 13.2992C72.2259 13.9838 72.9512 14.3261 73.8925 14.3261C74.8337 14.3261 75.5812 13.9838 76.085 13.2992C76.5888 12.6146 76.8435 11.5988 76.8435 10.2517C76.8435 8.90464 76.5888 7.86126 76.085 7.1546C75.5812 6.44793 74.8503 6.09454 73.8925 6.09454Z" fill="white"/>
    <path d="M90.2679 4.53027L89.3516 5.44376L99.832 15.8943L100.748 14.9808L90.2679 4.53027Z" fill="white"/>
    <path d="M99.832 4.53418L89.3516 14.9847L90.2679 15.8982L100.748 5.44767L99.832 4.53418Z" fill="white"/>
    <path d="M185.275 31.9326H144.01C138.219 31.9326 133.523 36.6143 133.523 42.3891C133.523 48.1639 138.219 52.8455 144.01 52.8455H185.275C191.067 52.8455 195.762 48.1639 195.762 42.3891C195.762 36.6143 191.067 31.9326 185.275 31.9326ZM153.749 43.7749C153.749 46.7727 151.568 48.9037 148.378 48.9037C145.189 48.9037 143.008 46.9107 143.008 43.7749V36.0843H145.3V43.6092C145.3 45.3814 146.391 46.8003 148.378 46.8003C150.366 46.8003 151.451 45.398 151.451 43.6203V36.0843H153.755V43.7749H153.749ZM167.32 48.6277H165.349L158.494 39.855V48.6277H156.191V36.0843H158.167L165.022 44.8625V36.0843H167.314V48.6277H167.32ZM172.297 48.6277H169.994V36.0843H172.297V48.6277ZM181.355 48.6277H179.257L173.986 36.0788H176.416L180.292 45.6299L180.331 45.6133L184.196 36.0788H186.637L181.355 48.6277Z" fill="white"/>
    <path d="M23.0493 38.6729C19.1293 38.6729 15.9512 41.8418 15.9512 45.7506C15.9512 49.6593 19.1293 52.8283 23.0493 52.8283C26.9693 52.8283 30.1473 49.6593 30.1473 45.7506C30.1473 41.8418 26.9693 38.6729 23.0493 38.6729ZM23.0493 50.0016C20.6961 50.0016 18.7915 48.1024 18.7915 45.7561C18.7915 43.4097 20.6961 41.5106 23.0493 41.5106C25.4024 41.5106 27.307 43.4097 27.307 45.7561C27.307 48.1024 25.4024 50.0016 23.0493 50.0016Z" fill="white"/>
    <path d="M39.0219 38.6729C35.1019 38.6729 31.9238 41.8418 31.9238 45.7506C31.9238 49.6593 35.1019 52.8283 39.0219 52.8283C42.9419 52.8283 46.12 49.6593 46.12 45.7506C46.12 41.8418 42.9419 38.6729 39.0219 38.6729ZM39.0219 50.0016C36.6688 50.0016 34.7642 48.1024 34.7642 45.7561C34.7642 43.4097 36.6688 41.5106 39.0219 41.5106C41.375 41.5106 43.2796 43.4097 43.2796 45.7561C43.2796 48.1024 41.375 50.0016 39.0219 50.0016Z" fill="white"/>
    <path d="M110.446 38.6729C106.526 38.6729 103.348 41.8418 103.348 45.7506C103.348 49.6593 106.526 52.8283 110.446 52.8283C114.366 52.8283 117.544 49.6593 117.544 45.7506C117.544 41.8418 114.366 38.6729 110.446 38.6729ZM110.446 50.0016C108.093 50.0016 106.188 48.1024 106.188 45.7561C106.188 43.4097 108.093 41.5106 110.446 41.5106C112.799 41.5106 114.703 43.4097 114.703 45.7561C114.703 48.1024 112.799 50.0016 110.446 50.0016Z" fill="white"/>
    <path d="M48.252 45.3974V52.4751H51.0923V45.3974C51.0923 43.443 52.6813 41.8586 54.6413 41.8586H56.0587V39.0264H54.6413C51.1144 39.0264 48.252 41.8806 48.252 45.3974Z" fill="white"/>
    <path d="M71.6786 39.0264C69.9843 39.0264 68.4617 39.7717 67.4208 40.9476C66.3799 39.7717 64.8573 39.0264 63.1631 39.0264C60.0293 39.0264 57.4824 41.5604 57.4824 44.6907V52.4751H60.3228V44.6907C60.3228 43.1283 61.5962 41.8586 63.1631 41.8586C64.73 41.8586 66.0034 43.1283 66.0034 44.6907V52.4751H68.8438V44.6907C68.8438 43.1283 70.1172 41.8586 71.6841 41.8586C73.251 41.8586 74.5245 43.1283 74.5245 44.6907V52.4751H77.3648V44.6907C77.3648 41.566 74.8234 39.0264 71.6841 39.0264H71.6786Z" fill="white"/>
    <path d="M128.972 40.8599C128.889 40.7661 128.8 40.6777 128.712 40.5894C128.662 40.5452 128.612 40.4955 128.562 40.4514C128.474 40.3686 128.379 40.2913 128.28 40.2195C128.224 40.1753 128.169 40.1312 128.108 40.0925C128.014 40.0208 127.914 39.9545 127.809 39.8938C127.748 39.8551 127.687 39.8165 127.621 39.7778C127.521 39.7171 127.416 39.6674 127.305 39.6122C127.239 39.5791 127.172 39.546 127.1 39.5128C126.99 39.4632 126.879 39.4245 126.768 39.3803C126.696 39.3527 126.63 39.3251 126.558 39.303C126.442 39.2644 126.325 39.2368 126.204 39.2037C126.132 39.1871 126.06 39.165 125.988 39.1485C125.86 39.1209 125.722 39.1043 125.589 39.0822C125.523 39.0712 125.462 39.0601 125.395 39.0546C125.196 39.0325 124.997 39.0215 124.792 39.0215C124.587 39.0215 124.388 39.0325 124.188 39.0546C124.122 39.0601 124.061 39.0767 123.994 39.0822C123.862 39.0988 123.729 39.1209 123.596 39.1485C123.524 39.165 123.452 39.1871 123.38 39.2037C123.264 39.2313 123.142 39.2644 123.025 39.303C122.953 39.3251 122.882 39.3527 122.815 39.3803C122.704 39.419 122.594 39.4632 122.483 39.5128C122.416 39.546 122.35 39.5791 122.278 39.6122C122.173 39.6619 122.068 39.7171 121.962 39.7778C121.896 39.8165 121.835 39.8551 121.774 39.8938C121.675 39.9545 121.575 40.0208 121.475 40.0925C121.42 40.1312 121.359 40.1753 121.304 40.2195C121.209 40.2968 121.115 40.3741 121.021 40.4514C120.971 40.4955 120.922 40.5397 120.872 40.5894C120.783 40.6777 120.695 40.7661 120.611 40.8599C119.676 41.8702 119.105 43.2118 119.105 44.6914V52.4758H121.946V44.6914C121.946 43.129 123.219 41.8592 124.786 41.8592C126.353 41.8592 127.626 43.129 127.626 44.6914V52.4758H130.467V44.6914C130.467 43.2118 129.891 41.8647 128.961 40.8599H128.972Z" fill="white"/>
    <path d="M96.2613 37.6246C95.3256 37.6246 94.4121 37.862 93.5982 38.3092V31.9492H90.7578V52.4757H93.5982V43.1123C93.5982 41.6493 94.7941 40.4568 96.2613 40.4568C97.7285 40.4568 98.9245 41.6493 98.9245 43.1123V52.4757H101.765V43.1123C101.765 40.0869 99.2954 37.6246 96.2613 37.6246Z" fill="white"/>
    <path d="M85.3313 31.9492H82.491V37.9669H79.1191V40.7991H82.491V52.4757H85.3313V40.7991H88.7032V37.9669H85.3313V31.9492Z" fill="white"/>
    <path d="M14.1962 40.0924C14.1962 36.1836 11.0181 33.0146 7.09808 33.0146C3.17808 33.0146 0.193788 35.9904 0.0110758 39.7335C0.0055391 39.8494 0 39.9709 0 40.0868C0 40.2028 2.36579e-06 40.3242 0.0110758 40.4402C0.193788 44.0839 3.21684 46.9824 6.9209 46.9824C8.6096 46.9824 10.1544 46.3806 11.3558 45.3813V46.4524C11.3281 46.894 11.1953 48.0368 10.3149 48.9533C9.05808 50.2617 7.10915 50.2396 5.83571 49.798C4.50136 49.3398 3.74836 48.3736 3.46045 47.954L0.819435 49.0471C1.6887 50.6924 3.18915 51.9511 4.99966 52.5087C5.17684 52.5639 5.9852 52.8124 7.09808 52.8234C7.88429 52.8344 10.409 52.862 12.3247 50.9574C14.0577 49.2349 14.1795 47.0265 14.1962 46.4524V40.0868V40.0924ZM7.09808 44.3379C4.74498 44.3379 2.84034 42.4387 2.84034 40.0924C2.84034 37.746 4.74498 35.8468 7.09808 35.8468C9.45119 35.8468 11.3558 37.746 11.3558 40.0924C11.3558 42.4387 9.45119 44.3379 7.09808 44.3379Z" fill="white"/>
  </g>
  <defs>
    <clipPath id="clip0_2213_848">
      <rect width="196" height="53" fill="white"/>
    </clipPath>
  </defs>
</svg>