<svg width="19" height="23" viewBox="0 0 19 23" fill="none" xmlns="http://www.w3.org/2000/svg">
<path d="M17.9983 10.1471C16.7411 17.5668 11.609 21.5843 9.99005 22.6851C9.69061 22.8887 9.30693 22.8841 9.00944 22.6777C7.32871 21.5115 1.84473 17.2045 0.998328 10.1471C0.273358 4.10214 5.11687 0 9.49833 0C14.0317 0 19.0155 4.14439 17.9983 10.1471Z" fill="#00FF00" fill-opacity="0.92"/>
<path d="M5.48479 9.1577L9.24859 12.7594C9.36754 12.8732 9.42702 12.9302 9.5 12.9302C9.57298 12.9302 9.63245 12.8733 9.75141 12.7594L9.75141 12.7594L13.5152 9.1577C14.3699 8.33981 14.5015 7.02125 13.8253 6.0506C12.8287 4.62008 10.6877 4.69522 9.79386 6.1921L9.58574 6.54062C9.547 6.60551 9.45301 6.60551 9.41426 6.54062L9.20614 6.1921C8.31229 4.69522 6.17134 4.62008 5.17475 6.0506C4.49853 7.02125 4.6301 8.33981 5.48479 9.1577Z" fill="#252424"/>
</svg>
