<svg width="17" height="17" viewBox="0 0 17 17" fill="none" xmlns="http://www.w3.org/2000/svg">
<path fill-rule="evenodd" clip-rule="evenodd" d="M8.89877 13.9675C10.0754 13.337 13.4596 11.225 13.4596 7.79232C13.4596 5.05391 11.2397 2.83398 8.5013 2.83398C5.76289 2.83398 3.54297 5.05391 3.54297 7.79232C3.54297 11.225 6.92717 13.337 8.10384 13.9675C8.35491 14.1021 8.64769 14.1021 8.89877 13.9675ZM8.5013 9.91732C9.67491 9.91732 10.6263 8.96592 10.6263 7.79232C10.6263 6.61871 9.67491 5.66732 8.5013 5.66732C7.3277 5.66732 6.3763 6.61871 6.3763 7.79232C6.3763 8.96592 7.3277 9.91732 8.5013 9.91732Z" fill="white"/>
</svg>
