<svg width="26" height="27" viewBox="0 0 26 27" fill="none" xmlns="http://www.w3.org/2000/svg">
<g id="Bookmark_fill">
<path id="Rectangle 1" d="M4.33203 10.125C4.33203 6.94302 4.33203 5.35203 5.28393 4.36351C6.23584 3.375 7.7679 3.375 10.832 3.375H15.1654C18.2295 3.375 19.7616 3.375 20.7135 4.36351C21.6654 5.35203 21.6654 6.94302 21.6654 10.125V17.8061C21.6654 20.8248 21.6654 22.3341 20.7507 22.7958C19.8361 23.2574 18.6932 22.3249 16.4074 20.4599L15.6759 19.863C14.3907 18.8143 13.7481 18.29 12.9987 18.29C12.2493 18.29 11.6067 18.8143 10.3215 19.863L9.58995 20.4599C7.30421 22.3249 6.16133 23.2574 5.24668 22.7958C4.33203 22.3341 4.33203 20.8248 4.33203 17.8061V10.125Z" fill="black" stroke="#222222" stroke-width="2"/>
</g>
</svg>
