<svg width="27" height="27" viewBox="0 0 27 27" fill="none" xmlns="http://www.w3.org/2000/svg">
<path d="M5.83203 10.125C5.83203 8.50676 5.834 7.39 5.94274 6.5501C6.04824 5.73522 6.23826 5.33338 6.50425 5.05716C6.76515 4.78622 7.1371 4.59606 7.90417 4.48896C8.70401 4.37729 9.77064 4.375 11.332 4.375H15.6654C17.2268 4.375 18.2934 4.37729 19.0932 4.48896C19.8603 4.59606 20.2322 4.78622 20.4931 5.05716C20.7591 5.33338 20.9492 5.73522 21.0547 6.5501C21.1634 7.39 21.1654 8.50676 21.1654 10.125V17.8061C21.1654 19.3482 21.1629 20.3946 21.0608 21.1204C21.0108 21.4756 20.9455 21.6794 20.8877 21.7935C20.8428 21.882 20.814 21.8962 20.8017 21.9023C20.8011 21.9025 20.8006 21.9028 20.8001 21.903C20.7994 21.9034 20.7987 21.9038 20.7979 21.9042C20.788 21.9096 20.7695 21.9197 20.6945 21.9054C20.5862 21.8848 20.4012 21.8177 20.105 21.6412C19.4983 21.2798 18.7094 20.6395 17.5396 19.6851L16.8081 19.0882L16.7632 19.0516C16.159 18.5585 15.6372 18.1327 15.1705 17.8378C14.6699 17.5216 14.1344 17.29 13.4987 17.29C12.863 17.29 12.3275 17.5216 11.8269 17.8378C11.3602 18.1327 10.8384 18.5585 10.2342 19.0516L10.1893 19.0882L9.45776 19.6851C8.28798 20.6395 7.49905 21.2798 6.89235 21.6412C6.59616 21.8177 6.41123 21.8848 6.30288 21.9054C6.22793 21.9197 6.20936 21.9096 6.19948 21.9042C6.1987 21.9038 6.19797 21.9034 6.19727 21.903C6.19679 21.9028 6.19627 21.9025 6.19573 21.9023C6.18334 21.8962 6.15462 21.882 6.10974 21.7935C6.05188 21.6794 5.98658 21.4756 5.9366 21.1204C5.83446 20.3946 5.83203 19.3482 5.83203 17.8061V10.125Z" fill="#00ff00" stroke="black" stroke-width="2"/>
</svg>
