<svg width="19" height="19" viewBox="0 0 19 19" fill="none" xmlns="http://www.w3.org/2000/svg">
<g id="&#236;&#139;&#156;&#234;&#176;&#132;_&#236;&#149;&#132;&#236;&#157;&#180;&#236;&#189;&#152;">
<path id="Subtract" fill-rule="evenodd" clip-rule="evenodd" d="M9.5 16.625C13.435 16.625 16.625 13.435 16.625 9.5C16.625 5.56497 13.435 2.375 9.5 2.375C5.56497 2.375 2.375 5.56497 2.375 9.5C2.375 13.435 5.56497 16.625 9.5 16.625ZM10.5 5.14583C10.5 4.59355 10.0523 4.14583 9.5 4.14583C8.94772 4.14583 8.5 4.59355 8.5 5.14583V9.25C8.5 9.94035 9.05964 10.5 9.75 10.5H12.2708C12.8231 10.5 13.2708 10.0523 13.2708 9.5C13.2708 8.94771 12.8231 8.5 12.2708 8.5H10.5V5.14583Z" fill="white"/>
</g>
</svg>
