<svg width="20" height="18" viewBox="0 0 20 18" fill="none" xmlns="http://www.w3.org/2000/svg">
<path id="Union" fill-rule="evenodd" clip-rule="evenodd" d="M1.83954 1.79657C0.667969 2.96815 0.667969 4.85376 0.667969 8.625V9.625V14.125V16.2715C0.667969 17.1537 1.72708 17.6037 2.36211 16.9914L5.18937 14.2651C5.26109 14.1959 5.29695 14.1613 5.34197 14.1432C5.38699 14.125 5.4368 14.125 5.53644 14.125L12.5846 14.125C15.1559 14.125 16.4416 14.125 17.391 13.5559C17.9553 13.2177 18.4274 12.7456 18.7655 12.1814C19.3346 11.2319 19.3346 9.9463 19.3346 7.375C19.3346 4.8037 19.3346 3.51805 18.7655 2.56859C18.4274 2.00437 17.9553 1.53226 17.391 1.19409C16.4416 0.625 15.1559 0.625 12.5846 0.625H8.66797C4.89673 0.625 3.01111 0.625 1.83954 1.79657Z" fill="#DCE0EA"/>
</svg>
