<svg width="9" height="9" viewBox="0 0 9 9" fill="none" xmlns="http://www.w3.org/2000/svg">
<g id="&#236;&#130;&#173;&#236;&#160;&#156; &#235;&#178;&#132;&#237;&#138;&#188;">
<path id="Vector" d="M7.06609 2.2084V7.06598H7.50954V2.2084H8.39062V1.76786H7.95008V1.32442H6.18211V0.44043H5.74156V1.32442H2.64906V0.44043H2.20852V1.32442H0.443442V1.76786H0V2.2084H0.883986V7.06598H1.32453V2.2084H7.06609Z" fill="white"/>
<path id="Vector_2" d="M7.06554 7.06641H6.625V8.39094H7.06554V7.06641Z" fill="white"/>
<path id="Vector_3" d="M6.62711 8.39062H1.76953V8.83407H6.62711V8.39062Z" fill="white"/>
<path id="Vector_4" d="M6.18273 3.09277H5.74219V6.62582H6.18273V3.09277Z" fill="white"/>
<path id="Vector_5" d="M5.74132 6.62598H5.30078V7.50706H5.74132V6.62598Z" fill="white"/>
<path id="Vector_6" d="M4.41711 3.09277H3.97656V7.50691H4.41711V3.09277Z" fill="white"/>
<path id="Vector_7" d="M5.74094 0H2.64844V0.440544H5.74094V0Z" fill="white"/>
<path id="Vector_8" d="M3.09188 6.62598H2.64844V7.50706H3.09188V6.62598Z" fill="white"/>
<path id="Vector_9" d="M2.64758 3.09277H2.20703V6.62582H2.64758V3.09277Z" fill="white"/>
<path id="Vector_10" d="M1.76766 7.06641H1.32422V8.39094H1.76766V7.06641Z" fill="white"/>
</g>
</svg>
