<?xml version="1.0" standalone="no"?>
<!DOCTYPE svg PUBLIC "-//W3C//DTD SVG 20010904//EN"
 "http://www.w3.org/TR/2001/REC-SVG-20010904/DTD/svg10.dtd">
<svg version="1.0" xmlns="http://www.w3.org/2000/svg"
 width="512.000000pt" height="512.000000pt" viewBox="0 0 512.000000 512.000000"
 preserveAspectRatio="xMidYMid meet">

<g transform="translate(0.000000,512.000000) scale(0.100000,-0.100000)"
fill="#000000" stroke="none">
<path d="M810 4945 c-337 -68 -587 -329 -639 -665 -9 -56 -11 -512 -9 -1765 3
-1845 -1 -1700 58 -1857 66 -177 261 -372 438 -438 157 -59 18 -55 1902 -55
1580 0 1730 1 1785 17 216 60 371 170 486 346 49 75 78 141 107 247 16 55 17
205 17 1785 0 1580 -1 1730 -17 1785 -29 106 -58 172 -107 247 -114 174 -261
279 -481 346 -50 16 -199 17 -1765 19 -1383 1 -1722 -1 -1775 -12z m3465 -320
c178 -47 321 -197 355 -374 14 -73 14 -3307 0 -3382 -34 -183 -195 -344 -379
-379 -74 -14 -3308 -14 -3382 0 -131 25 -266 124 -328 239 -65 122 -61 8 -61
1831 0 1435 2 1663 15 1713 45 171 177 306 346 351 84 23 3347 23 3434 1z"/>
</g>
</svg>
