<svg width="18" height="21" viewBox="0 0 18 21" fill="none" xmlns="http://www.w3.org/2000/svg">
<path d="M0 7.67871C0 4.49673 0 2.90574 0.951903 1.91723C1.90381 0.928711 3.43587 0.928711 6.5 0.928711H10.8333C13.8975 0.928711 15.4295 0.928711 16.3814 1.91723C17.3333 2.90574 17.3333 4.49673 17.3333 7.67871V15.3598C17.3333 18.3785 17.3333 19.8878 16.4187 20.3495C15.504 20.8111 14.3612 19.8786 12.0754 18.0136L11.3439 17.4167C10.0587 16.3681 9.41604 15.8437 8.66667 15.8437C7.9173 15.8437 7.27468 16.3681 5.98944 17.4167L5.25792 18.0136C2.97217 19.8786 1.8293 20.8111 0.914651 20.3495C0 19.8878 0 18.3785 0 15.3598V7.67871Z" fill="#00FF00"/>
</svg>
