<svg width="21" height="21" viewBox="0 0 21 21" fill="none" xmlns="http://www.w3.org/2000/svg">
<path fill-rule="evenodd" clip-rule="evenodd" d="M18.375 10.5C18.375 14.8492 14.8492 18.375 10.5 18.375C6.15076 18.375 2.625 14.8492 2.625 10.5C2.625 6.15076 6.15076 2.625 10.5 2.625C14.8492 2.625 18.375 6.15076 18.375 10.5ZM11.375 7C11.375 7.48325 10.9832 7.875 10.5 7.875C10.0168 7.875 9.625 7.48325 9.625 7C9.625 6.51675 10.0168 6.125 10.5 6.125C10.9832 6.125 11.375 6.51675 11.375 7ZM11.5 14.875V9.625H9.5V14.875H11.5Z" fill="white"/>
</svg>

