<svg width="19" height="20" viewBox="0 0 19 20" fill="none" xmlns="http://www.w3.org/2000/svg">
<g clip-path="url(#clip0_264_409)">
<path d="M7.1237 15.8329C3.16536 17.0829 3.16536 13.7495 1.58203 13.3329L7.1237 15.8329ZM12.6654 18.3329V15.1079C12.6951 14.7105 12.6441 14.311 12.5158 13.936C12.3874 13.561 12.1848 13.2191 11.9212 12.9329C14.407 12.6412 17.0195 11.6495 17.0195 7.09954C17.0193 5.93606 16.5942 4.81721 15.832 3.97454C16.1929 2.95663 16.1674 1.8315 15.7608 0.832874C15.7608 0.832874 14.8266 0.541208 12.6654 2.06621C10.8509 1.54856 8.93819 1.54856 7.1237 2.06621C4.96245 0.541208 4.02828 0.832874 4.02828 0.832874C3.62166 1.8315 3.59615 2.95663 3.95703 3.97454C3.18922 4.82346 2.76361 5.95243 2.76953 7.12454C2.76953 11.6412 5.38203 12.6329 7.86786 12.9579C7.6074 13.2412 7.40653 13.579 7.27832 13.9495C7.1501 14.3199 7.09742 14.7146 7.1237 15.1079V18.3329" fill="black"/>
<path d="M7.1237 15.8329C3.16536 17.0829 3.16536 13.7495 1.58203 13.3329M12.6654 18.3329V15.1079C12.6951 14.7105 12.6441 14.311 12.5158 13.936C12.3874 13.561 12.1848 13.2191 11.9212 12.9329C14.407 12.6412 17.0195 11.6495 17.0195 7.09954C17.0193 5.93606 16.5942 4.81721 15.832 3.97454C16.1929 2.95663 16.1674 1.8315 15.7608 0.832874C15.7608 0.832874 14.8266 0.541208 12.6654 2.06621C10.8509 1.54856 8.93819 1.54856 7.1237 2.06621C4.96245 0.541208 4.02828 0.832874 4.02828 0.832874C3.62166 1.8315 3.59615 2.95663 3.95703 3.97454C3.18922 4.82346 2.76361 5.95243 2.76953 7.12454C2.76953 11.6412 5.38203 12.6329 7.86786 12.9579C7.6074 13.2412 7.40653 13.579 7.27832 13.9495C7.1501 14.3199 7.09742 14.7146 7.1237 15.1079V18.3329" stroke="#1E1E1E" stroke-width="2" stroke-linecap="round" stroke-linejoin="round"/>
</g>
<defs>
<clipPath id="clip0_264_409">
<rect width="19" height="20" fill="white"/>
</clipPath>
</defs>

</svg>
