<svg width="30" height="18" viewBox="0 0 30 18" fill="none" xmlns="http://www.w3.org/2000/svg">
<path d="M1.63542 17.375C1.17205 17.375 0.78391 17.236 0.471 16.958C0.157 16.681 0 16.3373 0 15.9271C0 15.5168 0.157 15.1732 0.471 14.8962C0.78391 14.6182 1.17205 14.4792 1.63542 14.4792H27.8021C28.2655 14.4792 28.6536 14.6182 28.9665 14.8962C29.2805 15.1732 29.4375 15.5168 29.4375 15.9271C29.4375 16.3373 29.2805 16.681 28.9665 16.958C28.6536 17.236 28.2655 17.375 27.8021 17.375H1.63542ZM1.63542 10.1354C1.17205 10.1354 0.78391 9.99642 0.471 9.71842C0.157 9.44138 0 9.09774 0 8.6875C0 8.27726 0.157 7.93313 0.471 7.65513C0.78391 7.3781 1.17205 7.23958 1.63542 7.23958H27.8021C28.2655 7.23958 28.6536 7.3781 28.9665 7.65513C29.2805 7.93313 29.4375 8.27726 29.4375 8.6875C29.4375 9.09774 29.2805 9.44138 28.9665 9.71842C28.6536 9.99642 28.2655 10.1354 27.8021 10.1354H1.63542ZM1.63542 2.89583C1.17205 2.89583 0.78391 2.75732 0.471 2.48028C0.157 2.20228 0 1.85816 0 1.44792C0 1.03767 0.157 0.693552 0.471 0.415552C0.78391 0.138518 1.17205 0 1.63542 0H27.8021C28.2655 0 28.6536 0.138518 28.9665 0.415552C29.2805 0.693552 29.4375 1.03767 29.4375 1.44792C29.4375 1.85816 29.2805 2.20228 28.9665 2.48028C28.6536 2.75732 28.2655 2.89583 27.8021 2.89583H1.63542Z" fill="white"/>
</svg>
