<svg width="17" height="16" viewBox="0 0 17 16" fill="none" xmlns="http://www.w3.org/2000/svg">
<g id="Img_load_box_fill">
<path id="Subtract" fill-rule="evenodd" clip-rule="evenodd" d="M1.528 4.69958C1.41797 5.49307 1.41797 6.52969 1.41797 8H7.19027C6.96867 7.8991 6.72715 7.83302 6.47231 7.80903L4.95963 7.66667C3.26831 7.50748 1.91298 6.28616 1.528 4.69958ZM15.4672 4.64796L15.2305 11.3333C14.548 11.3333 13.8912 11.0729 13.3943 10.6051L12.6055 9.86273C11.8915 9.19076 10.7778 9.19076 10.0638 9.86273L9.44459 10.4455C9.08759 10.7815 8.50191 10.5287 8.5013 10.0387V14.6667H8.91797C11.4103 14.6667 12.6564 14.6667 13.5846 14.1308C14.1927 13.7797 14.6977 13.2747 15.0487 12.6667C15.5846 11.7385 15.5846 10.4923 15.5846 8C15.5846 6.49759 15.5846 5.44802 15.4672 4.64796Z" fill="#222222"/>
<path id="Rectangle 1" d="M9.5013 13.6663V10C9.5013 9.98184 9.50131 9.9637 9.50131 9.94559C9.50139 9.52152 9.50147 9.10939 9.45577 8.76948C9.40425 8.38628 9.27873 7.949 8.91552 7.58579L8.20841 8.29289L8.91551 7.58579C8.5523 7.22257 8.11502 7.09705 7.73182 7.04553C7.39191 6.99983 6.97978 6.99991 6.55571 6.99999C6.5376 7 6.51946 7 6.5013 7H2.41963C2.42356 6.24497 2.43673 5.6574 2.48087 5.17039C2.54158 4.50065 2.65446 4.11987 2.81989 3.83333C3.0832 3.37728 3.46191 2.99856 3.91797 2.73526C4.2045 2.56983 4.58528 2.45694 5.25503 2.39624C5.93852 2.33429 6.82008 2.33333 8.08464 2.33333H8.91796C10.1825 2.33333 11.0641 2.33429 11.7476 2.39624C12.4173 2.45694 12.7981 2.56983 13.0846 2.73526C13.5407 2.99856 13.9194 3.37728 14.1827 3.83333C14.3481 4.11987 14.461 4.50065 14.5217 5.17039C14.5837 5.85388 14.5846 6.73544 14.5846 8C14.5846 9.26456 14.5837 10.1461 14.5217 10.8296C14.461 11.4994 14.3481 11.8801 14.1827 12.1667C13.9194 12.6227 13.5407 13.0014 13.0846 13.2647C12.7981 13.4302 12.4173 13.5431 11.7476 13.6038C11.1744 13.6557 10.462 13.6648 9.5013 13.6663Z" stroke="#222222" stroke-width="2"/>
<ellipse id="Ellipse 46" cx="11.3346" cy="5.33333" rx="1.41667" ry="1.33333" fill="#222222"/>
<path id="Vector 91" d="M5.66797 10.6667V9.66667H6.66797V10.6667H5.66797ZM2.7278 14.1322C2.2866 14.4644 1.65963 14.376 1.32743 13.9348C0.995231 13.4936 1.0836 12.8667 1.5248 12.5345L2.7278 14.1322ZM4.66797 14V10.6667H6.66797V14H4.66797ZM5.66797 11.6667H2.1263V9.66667H5.66797V11.6667ZM6.26947 11.4655L2.7278 14.1322L1.5248 12.5345L5.06647 9.8678L6.26947 11.4655Z" fill="#222222"/>
</g>
</svg>
