<svg width="19" height="20" viewBox="0 0 19 20" fill="none" xmlns="http://www.w3.org/2000/svg">
<path d="M5.5655 0.0699376C4.5547 0.120138 3.86442 0.289938 3.26099 0.539538C2.63646 0.795738 2.10712 1.13954 1.58044 1.69594C1.05376 2.25234 0.729425 2.80994 0.487745 3.46834C0.253855 4.10494 0.0953954 4.83214 0.0507454 5.89674C0.00609541 6.96134 -0.0037846 7.30354 0.0011554 10.0191C0.0060954 12.7347 0.0174954 13.0751 0.0665154 14.1419C0.114775 15.2057 0.275515 15.9321 0.512635 16.5675C0.756405 17.2249 1.08264 17.7819 1.61141 18.3365C2.14018 18.8911 2.66952 19.2317 3.29651 19.4865C3.90071 19.7323 4.59175 19.8999 5.60293 19.9465C6.61411 19.9931 6.93957 20.0039 9.51863 19.9987C12.0977 19.9935 12.4224 19.9815 13.4357 19.9309C14.4489 19.8803 15.1354 19.7099 15.7392 19.4615C16.3638 19.2043 16.8933 18.8615 17.4198 18.3047C17.9463 17.7479 18.2704 17.1899 18.5119 16.5311C18.746 15.8951 18.905 15.1677 18.9489 14.1041C18.9932 13.0367 19.0036 12.6959 18.9987 9.98074C18.9937 7.26554 18.9822 6.92514 18.9341 5.85874C18.886 4.79234 18.7251 4.06814 18.4882 3.43234C18.244 2.77494 17.9182 2.21834 17.3896 1.66334C16.861 1.10834 16.3305 0.767338 15.7048 0.513738C15.1003 0.267538 14.4096 0.0997376 13.3984 0.0537376C12.3873 0.00773761 12.0618 -0.00406239 9.48177 0.00113761C6.90176 0.00633761 6.57876 0.0179376 5.5655 0.0699376ZM5.67646 18.1475C4.75021 18.1051 4.24727 17.9431 3.91211 17.8075C3.46827 17.6275 3.15212 17.4099 2.8181 17.0617C2.48408 16.7135 2.27888 16.3795 2.1056 15.9133C1.97545 15.5605 1.8187 15.0317 1.77538 14.0567C1.72826 13.0029 1.71838 12.6865 1.71287 10.0167C1.70736 7.34694 1.71705 7.03094 1.76094 5.97674C1.80046 5.00254 1.95531 4.47254 2.08394 4.11994C2.25494 3.65214 2.4609 3.31994 2.79244 2.96854C3.124 2.61714 3.44034 2.40074 3.88361 2.21834C4.21839 2.08074 4.72076 1.91714 5.64663 1.87074C6.64849 1.82074 6.94869 1.81074 9.48462 1.80494C12.0206 1.79914 12.3215 1.80914 13.3238 1.85554C14.2493 1.89794 14.7529 2.05934 15.0875 2.19554C15.5316 2.37554 15.8475 2.59174 16.1814 2.94134C16.5152 3.29094 16.721 3.62274 16.8942 4.09034C17.0252 4.44174 17.1806 4.97034 17.2243 5.94554C17.272 7.00014 17.2828 7.31634 17.2874 9.98554C17.2919 12.6547 17.283 12.9717 17.2391 14.0255C17.1986 15.0005 17.0451 15.5301 16.9161 15.8833C16.7451 16.3503 16.5389 16.6833 16.2072 17.0345C15.8755 17.3857 15.5595 17.6021 15.116 17.7845C14.7816 17.9219 14.2787 18.0859 13.3536 18.1323C12.3517 18.1819 12.0515 18.1923 9.51464 18.1981C6.97776 18.2039 6.67851 18.1931 5.67664 18.1475M13.421 4.65534C13.4214 4.89269 13.4887 5.1246 13.6143 5.32173C13.7398 5.51885 13.9182 5.67235 14.1266 5.76279C14.3351 5.85324 14.5644 5.87658 14.7854 5.82986C15.0065 5.78313 15.2095 5.66845 15.3686 5.50031C15.5278 5.33216 15.636 5.11812 15.6796 4.88524C15.7231 4.65236 15.7001 4.4111 15.6134 4.19199C15.5267 3.97288 15.3803 3.78575 15.1925 3.65427C15.0048 3.52279 14.7842 3.45286 14.5588 3.45334C14.2565 3.45397 13.9668 3.58096 13.7535 3.80636C13.5401 4.03177 13.4205 4.33715 13.421 4.65534ZM4.62214 10.0099C4.62746 12.8459 6.81551 15.1397 9.50913 15.1343C12.2028 15.1289 14.3834 12.8259 14.3783 9.98994C14.3731 7.15394 12.1845 4.85954 9.49051 4.86514C6.7965 4.87074 4.61701 7.17434 4.62214 10.0099ZM6.33328 10.0063C6.33205 9.34706 6.51656 8.70219 6.86349 8.15329C7.21043 7.6044 7.7042 7.17612 8.28237 6.92262C8.86053 6.66911 9.49713 6.60177 10.1117 6.72911C10.7262 6.85645 11.291 7.17275 11.7348 7.63801C12.1785 8.10327 12.4813 8.6966 12.6047 9.34296C12.7281 9.98932 12.6666 10.6597 12.4281 11.2693C12.1895 11.8789 11.7846 12.4003 11.2646 12.7677C10.7445 13.1351 10.1326 13.3318 9.50628 13.3331C9.09041 13.3341 8.67844 13.2487 8.29389 13.082C7.90935 12.9153 7.55977 12.6705 7.26512 12.3616C6.97047 12.0527 6.73652 11.6857 6.57663 11.2815C6.41675 10.8774 6.33406 10.4441 6.33328 10.0063Z" fill="black"/>
</svg>