<svg width="28" height="28" viewBox="4.5 5 22 22" xmlns="http://www.w3.org/2000/svg">
  <path d="M14 24.15L12.275 22.575C10.5083 20.9583 8.91267 19.354 7.488 17.762C6.06267 16.1707 5.35 14.4167 5.35 12.5C5.35 10.9333 5.875 9.625 6.925 8.575C7.975 7.525 9.28333 7 10.85 7C11.7333 7 12.5667 7.18733 13.35 7.562C14.1333 7.93733 14.8 8.45 15.35 9.1C15.9 8.45 16.5667 7.93733 17.35 7.562C18.1333 7.18733 18.9667 7 19.85 7C21.4167 7 22.725 7.525 23.775 8.575C24.825 9.625 25.35 10.9333 25.35 12.5C25.35 14.4167 24.6417 16.175 23.225 17.775C21.8083 19.375 20.2 20.9833 18.4 22.6L16.7 24.15C16.3167 24.5 15.8667 24.675 15.35 24.675C14.8333 24.675 14.3833 24.5 14 24.15Z" fill="white" stroke="#000" stroke-width="1.5"/>
</svg>