<svg width="14" height="16" viewBox="0 0 14 16" fill="none" xmlns="http://www.w3.org/2000/svg">
<path id="Subtract" fill-rule="evenodd" clip-rule="evenodd" d="M7.19276 15.8659C8.66117 15.0717 13.5641 12.0448 13.5641 7.03341C13.5641 3.14897 10.5277 0 6.78205 0C3.03643 0 0 3.14897 0 7.03341C0 12.0448 4.90294 15.0717 6.37135 15.8659C6.63034 16.006 6.93376 16.006 7.19276 15.8659ZM6.78216 10.0482C8.38743 10.0482 9.68875 8.69861 9.68875 7.03385C9.68875 5.36909 8.38743 4.01953 6.78216 4.01953C5.17689 4.01953 3.87557 5.36909 3.87557 7.03385C3.87557 8.69861 5.17689 10.0482 6.78216 10.0482Z" fill="white"/>
</svg>
