<svg width="21" height="21" viewBox="0 0 21 21" fill="none" xmlns="http://www.w3.org/2000/svg">
<path fill-rule="evenodd" clip-rule="evenodd" d="M1.79238 6.58455C1.75 7.46166 1.75 8.50264 1.75 9.74985V10.4999H8.83492C8.54373 10.3628 8.2252 10.2724 7.88842 10.2387L6.125 10.0624C5.39979 9.98983 5.03718 9.95357 4.73124 9.873C3.19863 9.46934 2.04888 8.19888 1.79973 6.63372C1.79715 6.61748 1.7947 6.60111 1.79238 6.58455ZM19.1242 5.52441L18.8125 14.8749C17.9721 14.8749 17.1662 14.541 16.5719 13.9468L15.5858 12.9606C15.4265 12.8013 15.3468 12.7216 15.2732 12.6609C14.5341 12.0507 13.4659 12.0507 12.7268 12.6609C12.6532 12.7216 12.5735 12.8013 12.4142 12.9606L11.7377 13.6371C11.281 14.0939 10.5 13.7704 10.5 13.1245V19.2499H11.25C15.0212 19.2499 16.9069 19.2499 18.0784 18.0783C19.25 16.9067 19.25 15.0211 19.25 11.2499V9.74985C19.25 7.95729 19.25 6.59075 19.1242 5.52441Z" fill="#222222"/>
<path d="M2.75002 9.5C2.75045 7.71895 2.7581 6.45685 2.88753 5.49416C3.01907 4.51579 3.25966 3.9977 3.62868 3.62868C3.9977 3.25966 4.51579 3.01907 5.49416 2.88753C6.50129 2.75212 7.83611 2.75 9.75 2.75H11.25C13.1639 2.75 14.4987 2.75212 15.5058 2.88753C16.4842 3.01907 17.0023 3.25966 17.3713 3.62868L17.8856 3.11442L17.3713 3.62868C17.7403 3.9977 17.9809 4.51579 18.1125 5.49416C18.2479 6.50129 18.25 7.83611 18.25 9.75V11.25C18.25 13.1639 18.2479 14.4987 18.1125 15.5058C17.9809 16.4842 17.7403 17.0023 17.3713 17.3713C17.0023 17.7403 16.4842 17.9809 15.5058 18.1125C14.5431 18.2419 13.2811 18.2496 11.5 18.25V12.5C11.5 12.4818 11.5 12.4637 11.5 12.4456C11.5001 12.0215 11.5002 11.6094 11.4545 11.2695C11.403 10.8863 11.2774 10.449 10.9142 10.0858C10.551 9.72257 10.1137 9.59705 9.73052 9.54553C9.39061 9.49983 8.97848 9.49991 8.55441 9.49999C8.53629 9.5 8.51816 9.5 8.5 9.5H2.75002Z" stroke="#222222" stroke-width="2"/>
<circle cx="14" cy="7" r="1.75" fill="#222222"/>
<path d="M7 14V13H8V14H7ZM3.2497 18.2809C2.81843 18.6259 2.18914 18.556 1.84413 18.1247C1.49912 17.6934 1.56904 17.0641 2.00031 16.7191L3.2497 18.2809ZM6 18.375V14H8V18.375H6ZM7 15H2.625V13H7V15ZM7.6247 14.7809L3.2497 18.2809L2.00031 16.7191L6.3753 13.2191L7.6247 14.7809Z" fill="#222222"/>
</svg>
