<svg width="52" height="55" viewBox="0 0 52 55" fill="none" xmlns="http://www.w3.org/2000/svg">
<g id="Property 1=Default">
<path id="Subtract" fill-rule="evenodd" clip-rule="evenodd" d="M16.382 41.1355L12.3179 48.3467C11.1231 50.4669 10.5256 51.527 11.0434 52.0293C11.5612 52.5315 12.7217 52.0176 15.0425 50.9896L34.8018 42.2376C36.4309 41.516 37.2454 41.1552 37.2567 40.5594C37.2681 39.9636 36.4679 39.5719 34.8675 38.7885L15.4891 29.3022L15.4891 29.3022C13.2202 28.1915 12.0857 27.6361 11.5492 28.1165C11.0128 28.5969 11.5628 29.6756 12.6629 31.8329L12.6629 31.8329L16.4234 39.2074L26.5445 39.396C27.1158 39.4067 27.5709 39.847 27.5611 40.3794C27.5513 40.9118 27.0802 41.3348 26.5089 41.3242L16.382 41.1355Z" fill="black"/>
</g>
</svg>
