<svg width="51" height="54" viewBox="0 0 51 54" fill="none" xmlns="http://www.w3.org/2000/svg">
<g id="Property 1=&#237;&#129;&#180;&#235;&#166;&#173;">
<path id="Subtract" fill-rule="evenodd" clip-rule="evenodd" d="M15.8859 40.8196L11.8218 48.031C10.6269 50.1512 10.0295 51.2113 10.5473 51.7135C11.0651 52.2158 12.2255 51.7018 14.5464 50.6739L14.5464 50.6739L34.3059 41.9217C35.935 41.2002 36.7495 40.8394 36.7608 40.2436C36.7722 39.6478 35.972 39.2561 34.3716 38.4726L14.993 28.9863C12.724 27.8756 11.5896 27.3202 11.0531 27.8006C10.5166 28.281 11.0667 29.3596 12.1668 31.517L15.9273 38.8916L26.0485 39.0802C26.6197 39.0909 27.0749 39.5311 27.0651 40.0636C27.0552 40.596 26.5842 41.019 26.0129 41.0084L15.8859 40.8196Z" fill="#00FF00"/>
</g>
</svg>
